#!OML:ASF F:\VICON\USERDATA\INSTALL\rory3\rory3.ASF
:FULLY-SPECIFIED
:DEGREES
1564
root 2.16046 16.9952 -0.598402 3.80342 -7.3757 14.2136
lowerback 6.41735 -0.234305 12.9366
upperback -2.07375 1.67138 16.6593
thorax -6.16489 0.706179 10.9622
lowerneck -19.3116 -7.60887 -3.16109
upperneck 35.0453 -19.7809 20.514
head 20.2123 -5.53021 5.98628
rclavicle -8.74653e-015 -3.49861e-014
rhumerus 35.1123 -66.8856 -73.9931
rradius 100.202
rwrist -65.6256
rhand -57.6727 -9.90767
rfingers 7.12502
rthumb -29.9336 -37.5069
lclavicle -8.74653e-015 -3.49861e-014
lhumerus 280.621 -43.8474 -231.625
lradius 85.8998
lwrist -20.0629
lhand -20.6408 0.751187
lfingers 7.12502
lthumb 5.72116 30.654
rfemur -17.378 13.5839 -6.85982
rtibia 31.2356
rfoot -19.5998 -9.88168
rtoes -23.1666
lfemur -6.4816 -0.923388 -41.1673
ltibia 11.4166
lfoot -9.87771 -0.164058
ltoes -2.78412
1565
root 2.15999 17.0078 -0.59874 3.89534 -7.36627 14.287
lowerback 6.36724 -0.284342 12.9434
upperback -1.96089 1.57035 16.7223
thorax -6.00207 0.659437 11.0387
lowerneck -19.62 -7.70628 -2.81565
upperneck 35.0892 -20.2256 20.7078
head 20.4524 -5.60109 5.91888
rclavicle -1.66979e-014 0
rhumerus 36.1387 -66.8257 -75.1032
rradius 100.315
rwrist -65.3075
rhand -57.5568 -10.1396
rfingers 7.12502
rthumb -29.823 -37.7588
lclavicle -1.66979e-014 0
lhumerus 281.007 -43.8985 -232.004
lradius 85.8023
lwrist -20.3091
lhand -20.847 0.466877
lfingers 7.12502
lthumb 5.5221 30.3749
rfemur -17.2759 13.9599 -6.97151
rtibia 30.9129
rfoot -19.4823 -10.2147
rtoes -22.8007
lfemur -6.15776 -1.08784 -41.2303
ltibia 10.6428
lfoot -9.5797 -0.0282198
ltoes -3.13183
1566
root 2.15845 17.0181 -0.60119 4.01385 -7.41792 14.363
lowerback 6.33891 -0.291303 12.9362
upperback -1.91005 1.54403 16.7801
thorax -5.92887 0.648683 11.1132
lowerneck -19.7057 -7.77158 -2.6087
upperneck 35.0311 -20.5566 20.9946
head 20.5771 -5.66 5.94664
rclavicle 2.06736e-014 -3.49861e-014
rhumerus 36.5238 -66.85 -75.4426
rradius 100.415
rwrist -65.1557
rhand -57.3675 -10.3826
rfingers 7.12502
rthumb -29.6423 -38.0341
lclavicle 2.06736e-014 -3.49861e-014
lhumerus 281.198 -43.9059 -232.173
lradius 85.7313
lwrist -20.475
lhand -20.8582 0.342309
lfingers 7.12502
lthumb 5.51128 30.2506
rfemur -17.2564 14.2487 -7.09982
rtibia 30.552
rfoot -19.3193 -10.432
rtoes -22.5236
lfemur -5.89598 -1.20607 -41.3024
ltibia 9.87709
lfoot -9.35946 0.215058
ltoes -5.46518
1567
root 2.15638 17.0315 -0.606254 4.14871 -7.54067 14.2222
lowerback 6.42309 -0.296627 13.1568
upperback -1.94633 1.58817 16.8805
thorax -6.02506 0.662851 11.1153
lowerneck -19.5618 -7.8619 -2.9584
upperneck 34.6674 -20.8227 21.5924
head 20.9272 -5.7888 6.2185
rclavicle -2.70347e-014 3.81667e-014
rhumerus 36.3427 -66.7722 -75.223
rradius 100.587
rwrist -65.0341
rhand -57.2164 -9.27178
rfingers 7.12502
rthumb -29.4981 -36.9488
lclavicle -2.70347e-014 3.81667e-014
lhumerus 281.137 -43.7518 -232.176
lradius 85.683
lwrist -20.5515
lhand -20.8068 0.285259
lfingers 7.12502
lthumb 5.56092 30.1923
rfemur -17.2817 14.6209 -6.9877
rtibia 30.1876
rfoot -19.0795 -10.7159
rtoes -22.4669
lfemur -5.61212 -1.23885 -41.1585
ltibia 9.03707
lfoot -8.97768 0.436937
ltoes -6.90705
1568
root 2.15285 17.0471 -0.614247 4.32204 -7.59538 14.0526
lowerback 6.48761 -0.326195 13.3636
upperback -2.02705 1.60654 16.9939
thorax -6.15863 0.665017 11.1479
lowerneck -19.1828 -7.8974 -2.93065
upperneck 34.4868 -20.9949 21.9667
head 20.8354 -5.84721 6.35932
rclavicle 3.97569e-015 -9.85972e-014
rhumerus 36.1744 -66.698 -74.947
rradius 100.846
rwrist -64.9515
rhand -56.9525 -9.84183
rfingers 7.12502
rthumb -29.2461 -37.563
lclavicle 3.97569e-015 -9.85972e-014
lhumerus 281.062 -43.5054 -232.151
lradius 85.6213
lwrist -20.6721
lhand -20.8807 0.271848
lfingers 7.12502
lthumb 5.48949 30.1807
rfemur -17.3081 15.1138 -6.84328
rtibia 29.8159
rfoot -18.9066 -11.0921
rtoes -22.0401
lfemur -5.3803 -1.34203 -40.9606
ltibia 8.20362
lfoot -8.56986 0.582248
ltoes -7.42897
1569
root 2.14818 17.0605 -0.621141 4.44721 -7.59581 14.0423
lowerback 6.50404 -0.350819 13.3976
upperback -2.06767 1.59283 17.0378
thorax -6.21485 0.657466 11.1897
lowerneck -18.975 -7.92337 -2.8369
upperneck 34.4025 -21.198 22.2819
head 20.8546 -5.8969 6.4602
rclavicle 1.59028e-015 2.22639e-014
rhumerus 36.1242 -66.7145 -74.6933
rradius 101.078
rwrist -64.903
rhand -56.8179 -10.8748
rfingers 7.12502
rthumb -29.1176 -38.6182
lclavicle 1.59028e-015 2.22639e-014
lhumerus 281.054 -43.4358 -232.148
lradius 85.5336
lwrist -20.6606
lhand -20.9705 0.248937
lfingers 7.12502
lthumb 5.40282 30.1601
rfemur -17.2585 15.6241 -6.86393
rtibia 29.4374
rfoot -18.7436 -11.5404
rtoes -21.9276
lfemur -5.02254 -1.49613 -40.9139
ltibia 7.21574
lfoot -8.09326 0.694637
ltoes -7.64695
1570
root 2.1439 17.0736 -0.623569 4.5786 -7.60034 14.0134
lowerback 6.44433 -0.350818 13.4578
upperback -2.04724 1.5792 17.0706
thorax -6.1561 0.649522 11.1948
lowerneck -19.0171 -7.98988 -2.74818
upperneck 34.3648 -21.4972 22.5755
head 21.0194 -5.96645 6.53073
rclavicle 1.59028e-014 -5.40694e-014
rhumerus 36.1613 -66.6901 -74.5204
rradius 101.249
rwrist -64.7794
rhand -56.9115 -10.1432
rfingers 7.12502
rthumb -29.207 -37.8711
lclavicle 1.59028e-014 -5.40694e-014
lhumerus 281.147 -43.5395 -232.195
lradius 85.4827
lwrist -20.574
lhand -20.9193 0.1557
lfingers 7.12502
lthumb 5.45225 30.0656
rfemur -17.2081 16.0169 -6.85648
rtibia 29.0842
rfoot -18.4847 -11.9769
rtoes -21.9612
lfemur -4.45213 -1.64616 -40.849
ltibia 5.8324
lfoot -7.42232 0.764984
ltoes -6.76492
1571
root 2.13891 17.0846 -0.623916 4.67677 -7.58598 13.9962
lowerback 6.36731 -0.371418 13.5342
upperback -2.01065 1.53032 17.0859
thorax -6.06433 0.623455 11.1709
lowerneck -19.0782 -8.05633 -2.63408
upperneck 34.3222 -21.804 22.8612
head 21.186 -6.03526 6.58875
rclavicle 9.54166e-015 5.08889e-014
rhumerus 36.5566 -66.6488 -74.7459
rradius 101.479
rwrist -64.4847
rhand -56.9025 -9.60509
rfingers 7.12502
rthumb -29.1984 -37.3346
lclavicle 9.54166e-015 5.08889e-014
lhumerus 281.305 -43.5682 -232.319
lradius 85.4311
lwrist -20.6269
lhand -20.8912 0.121907
lfingers 7.12502
lthumb 5.47939 30.0311
rfemur -17.1295 16.3772 -6.85345
rtibia 28.7678
rfoot -18.2782 -12.3441
rtoes -21.7177
lfemur -3.53262 -1.80414 -40.8044
ltibia 3.87112
lfoot -6.53411 0.830791
ltoes -5.91539
1572
root 2.13394 17.0925 -0.623964 4.74643 -7.53514 14.0452
lowerback 6.28125 -0.423542 13.5644
upperback -1.99359 1.43701 17.0741
thorax -5.98457 0.576673 11.1455
lowerneck -19.0538 -8.05844 -2.44929
upperneck 34.2725 -21.9951 23.1034
head 21.2554 -6.06113 6.63621
rclavicle 2.3059e-014 6.36111e-015
rhumerus 36.9841 -66.6177 -74.9521
rradius 101.72
rwrist -64.3236
rhand -56.8807 -9.74037
rfingers 7.12502
rthumb -29.1776 -37.4734
lclavicle 2.3059e-014 6.36111e-015
lhumerus 281.45 -43.5131 -232.448
lradius 85.3216
lwrist -20.7645
lhand -20.946 0.0589346
lfingers 7.12502
lthumb 5.42651 29.9695
rfemur -16.9997 16.7057 -6.9108
rtibia 28.4621
rfoot -18.1208 -12.7487
rtoes -21.932
lfemur -1.55773 -1.99559 -40.848
ltibia -1.59028e-015
lfoot -4.71006 0.923487
ltoes -6.22578
